<?xml version="1.0" encoding="UTF-8" standalone="no"?>
<!DOCTYPE svg PUBLIC "-//W3C//DTD SVG 1.1//EN"
 "http://www.w3.org/Graphics/SVG/1.1/DTD/svg11.dtd">
<!-- Generated by graphviz version 2.36.0 (20140111.2315)
 -->
<!-- Title: %3 Pages: 1 -->
<svg width="1050pt" height="308pt"
 viewBox="0.00 0.00 1050.00 308.00" xmlns="http://www.w3.org/2000/svg" xmlns:xlink="http://www.w3.org/1999/xlink">
<g id="graph0" class="graph" transform="scale(1 1) rotate(0) translate(4 304)">
<title>%3</title>
<polygon fill="white" stroke="none" points="-4,4 -4,-304 1046,-304 1046,4 -4,4"/>
<!-- 1_State Update -->
<g id="node1" class="node"><title>1_State Update</title>
<ellipse fill="none" stroke="black" cx="64" cy="-282" rx="64.4914" ry="18"/>
<text text-anchor="middle" x="64" y="-278.3" font-family="Times,serif" font-size="14.00">1_State Update</text>
</g>
<!-- 2_State Update -->
<g id="node2" class="node"><title>2_State Update</title>
<ellipse fill="none" stroke="black" cx="212" cy="-282" rx="64.4914" ry="18"/>
<text text-anchor="middle" x="212" y="-278.3" font-family="Times,serif" font-size="14.00">2_State Update</text>
</g>
<!-- 3_State Update -->
<g id="node3" class="node"><title>3_State Update</title>
<ellipse fill="none" stroke="black" cx="360" cy="-282" rx="64.4914" ry="18"/>
<text text-anchor="middle" x="360" y="-278.3" font-family="Times,serif" font-size="14.00">3_State Update</text>
</g>
<!-- 4_State Update -->
<g id="node4" class="node"><title>4_State Update</title>
<ellipse fill="none" stroke="black" cx="360" cy="-194" rx="64.4914" ry="18"/>
<text text-anchor="middle" x="360" y="-190.3" font-family="Times,serif" font-size="14.00">4_State Update</text>
</g>
<!-- 3_State Update&#45;&gt;4_State Update -->
<g id="edge1" class="edge"><title>3_State Update&#45;&gt;4_State Update</title>
<path fill="none" stroke="black" d="M360,-263.597C360,-251.746 360,-235.817 360,-222.292"/>
<polygon fill="black" stroke="black" points="363.5,-222.084 360,-212.084 356.5,-222.084 363.5,-222.084"/>
<text text-anchor="middle" x="375.5" y="-234.3" font-family="Times,serif" font-size="14.00">finish</text>
</g>
<!-- 5_State Update -->
<g id="node5" class="node"><title>5_State Update</title>
<ellipse fill="none" stroke="black" cx="634" cy="-282" rx="64.4914" ry="18"/>
<text text-anchor="middle" x="634" y="-278.3" font-family="Times,serif" font-size="14.00">5_State Update</text>
</g>
<!-- 6_Data&#45;path -->
<g id="node6" class="node"><title>6_Data&#45;path</title>
<ellipse fill="none" stroke="black" cx="497" cy="-194" rx="53.4184" ry="18"/>
<text text-anchor="middle" x="497" y="-190.3" font-family="Times,serif" font-size="14.00">6_Data&#45;path</text>
</g>
<!-- 5_State Update&#45;&gt;6_Data&#45;path -->
<g id="edge2" class="edge"><title>5_State Update&#45;&gt;6_Data&#45;path</title>
<path fill="none" stroke="black" d="M608.872,-265.226C586.581,-251.234 553.881,-230.706 529.586,-215.455"/>
<polygon fill="black" stroke="black" points="531.38,-212.449 521.05,-210.097 527.659,-218.378 531.38,-212.449"/>
<text text-anchor="middle" x="580.5" y="-234.3" font-family="Times,serif" font-size="14.00">x</text>
</g>
<!-- 8_State Update -->
<g id="node8" class="node"><title>8_State Update</title>
<ellipse fill="none" stroke="black" cx="634" cy="-194" rx="64.4914" ry="18"/>
<text text-anchor="middle" x="634" y="-190.3" font-family="Times,serif" font-size="14.00">8_State Update</text>
</g>
<!-- 5_State Update&#45;&gt;8_State Update -->
<g id="edge3" class="edge"><title>5_State Update&#45;&gt;8_State Update</title>
<path fill="none" stroke="black" d="M634,-263.597C634,-251.746 634,-235.817 634,-222.292"/>
<polygon fill="black" stroke="black" points="637.5,-222.084 634,-212.084 630.5,-222.084 637.5,-222.084"/>
<text text-anchor="middle" x="637.5" y="-234.3" font-family="Times,serif" font-size="14.00">x</text>
</g>
<!-- 9_Counter -->
<g id="node9" class="node"><title>9_Counter</title>
<ellipse fill="none" stroke="black" cx="710" cy="-106" rx="48.1437" ry="18"/>
<text text-anchor="middle" x="710" y="-102.3" font-family="Times,serif" font-size="14.00">9_Counter</text>
</g>
<!-- 5_State Update&#45;&gt;9_Counter -->
<g id="edge4" class="edge"><title>5_State Update&#45;&gt;9_Counter</title>
<path fill="none" stroke="black" d="M656.699,-265.087C673.024,-252.485 694.315,-233.471 707,-212 723.138,-184.684 725.812,-173.36 721,-142 720.58,-139.261 719.985,-136.443 719.286,-133.651"/>
<polygon fill="black" stroke="black" points="722.587,-132.467 716.433,-123.843 715.866,-134.423 722.587,-132.467"/>
<text text-anchor="middle" x="725.5" y="-190.3" font-family="Times,serif" font-size="14.00">x</text>
</g>
<!-- 15_State Update -->
<g id="node15" class="node"><title>15_State Update</title>
<ellipse fill="none" stroke="black" cx="497" cy="-106" rx="69.3156" ry="18"/>
<text text-anchor="middle" x="497" y="-102.3" font-family="Times,serif" font-size="14.00">15_State Update</text>
</g>
<!-- 6_Data&#45;path&#45;&gt;15_State Update -->
<g id="edge5" class="edge"><title>6_Data&#45;path&#45;&gt;15_State Update</title>
<path fill="none" stroke="black" d="M497,-175.597C497,-163.746 497,-147.817 497,-134.292"/>
<polygon fill="black" stroke="black" points="500.5,-134.084 497,-124.084 493.5,-134.084 500.5,-134.084"/>
<text text-anchor="middle" x="503.5" y="-146.3" font-family="Times,serif" font-size="14.00">da</text>
</g>
<!-- 16_Data&#45;path -->
<g id="node16" class="node"><title>16_Data&#45;path</title>
<ellipse fill="none" stroke="black" cx="245" cy="-18" rx="58.2422" ry="18"/>
<text text-anchor="middle" x="245" y="-14.3" font-family="Times,serif" font-size="14.00">16_Data&#45;path</text>
</g>
<!-- 6_Data&#45;path&#45;&gt;16_Data&#45;path -->
<g id="edge6" class="edge"><title>6_Data&#45;path&#45;&gt;16_Data&#45;path</title>
<path fill="none" stroke="black" d="M463.304,-179.861C403.965,-156.081 284.488,-105.117 257,-70 251.718,-63.2515 248.698,-54.5623 246.991,-46.275"/>
<polygon fill="black" stroke="black" points="250.418,-45.5317 245.46,-36.169 243.498,-46.5805 250.418,-45.5317"/>
<text text-anchor="middle" x="342.5" y="-102.3" font-family="Times,serif" font-size="14.00">da</text>
</g>
<!-- 17_Counter -->
<g id="node17" class="node"><title>17_Counter</title>
<ellipse fill="none" stroke="black" cx="631" cy="-18" rx="51.4931" ry="18"/>
<text text-anchor="middle" x="631" y="-14.3" font-family="Times,serif" font-size="14.00">17_Counter</text>
</g>
<!-- 6_Data&#45;path&#45;&gt;17_Counter -->
<g id="edge7" class="edge"><title>6_Data&#45;path&#45;&gt;17_Counter</title>
<path fill="none" stroke="black" d="M518.891,-177.51C546.666,-156.555 593.747,-116.41 617,-70 620.718,-62.5799 623.556,-54.0414 625.671,-46.0995"/>
<polygon fill="black" stroke="black" points="629.129,-46.6865 628.05,-36.1468 622.321,-45.0593 629.129,-46.6865"/>
<text text-anchor="middle" x="611.5" y="-102.3" font-family="Times,serif" font-size="14.00">da</text>
</g>
<!-- 7_State Update -->
<g id="node7" class="node"><title>7_State Update</title>
<ellipse fill="none" stroke="black" cx="820" cy="-282" rx="64.4914" ry="18"/>
<text text-anchor="middle" x="820" y="-278.3" font-family="Times,serif" font-size="14.00">7_State Update</text>
</g>
<!-- 8_State Update&#45;&gt;9_Counter -->
<g id="edge8" class="edge"><title>8_State Update&#45;&gt;9_Counter</title>
<path fill="none" stroke="black" d="M645.572,-175.847C652.742,-165.649 662.391,-152.664 672,-142 675.753,-137.836 679.938,-133.618 684.121,-129.622"/>
<polygon fill="black" stroke="black" points="686.602,-132.094 691.554,-122.728 681.842,-126.962 686.602,-132.094"/>
<text text-anchor="middle" x="696.5" y="-146.3" font-family="Times,serif" font-size="14.00">pixel_wr</text>
</g>
<!-- 10_Counter -->
<g id="node10" class="node"><title>10_Counter</title>
<ellipse fill="none" stroke="black" cx="991" cy="-282" rx="51.4931" ry="18"/>
<text text-anchor="middle" x="991" y="-278.3" font-family="Times,serif" font-size="14.00">10_Counter</text>
</g>
<!-- 11_Counter -->
<g id="node11" class="node"><title>11_Counter</title>
<ellipse fill="none" stroke="black" cx="991" cy="-194" rx="51.4931" ry="18"/>
<text text-anchor="middle" x="991" y="-190.3" font-family="Times,serif" font-size="14.00">11_Counter</text>
</g>
<!-- 10_Counter&#45;&gt;11_Counter -->
<g id="edge9" class="edge"><title>10_Counter&#45;&gt;11_Counter</title>
<path fill="none" stroke="black" d="M991,-263.597C991,-251.746 991,-235.817 991,-222.292"/>
<polygon fill="black" stroke="black" points="994.5,-222.084 991,-212.084 987.5,-222.084 994.5,-222.084"/>
<text text-anchor="middle" x="1015" y="-234.3" font-family="Times,serif" font-size="14.00">men_cnt</text>
</g>
<!-- 12_State Trasition -->
<g id="node12" class="node"><title>12_State Trasition</title>
<ellipse fill="none" stroke="black" cx="846" cy="-194" rx="75.0904" ry="18"/>
<text text-anchor="middle" x="846" y="-190.3" font-family="Times,serif" font-size="14.00">12_State Trasition</text>
</g>
<!-- 13_State Update -->
<g id="node13" class="node"><title>13_State Update</title>
<ellipse fill="none" stroke="black" cx="846" cy="-106" rx="69.3156" ry="18"/>
<text text-anchor="middle" x="846" y="-102.3" font-family="Times,serif" font-size="14.00">13_State Update</text>
</g>
<!-- 12_State Trasition&#45;&gt;13_State Update -->
<g id="edge10" class="edge"><title>12_State Trasition&#45;&gt;13_State Update</title>
<path fill="none" stroke="black" d="M846,-175.597C846,-163.746 846,-147.817 846,-134.292"/>
<polygon fill="black" stroke="black" points="849.5,-134.084 846,-124.084 842.5,-134.084 849.5,-134.084"/>
<text text-anchor="middle" x="864" y="-146.3" font-family="Times,serif" font-size="14.00">so_cnt</text>
</g>
<!-- 14_State Update -->
<g id="node14" class="node"><title>14_State Update</title>
<ellipse fill="none" stroke="black" cx="846" cy="-18" rx="69.3156" ry="18"/>
<text text-anchor="middle" x="846" y="-14.3" font-family="Times,serif" font-size="14.00">14_State Update</text>
</g>
<!-- 13_State Update&#45;&gt;14_State Update -->
<g id="edge11" class="edge"><title>13_State Update&#45;&gt;14_State Update</title>
<path fill="none" stroke="black" d="M846,-87.5966C846,-75.7459 846,-59.8169 846,-46.2917"/>
<polygon fill="black" stroke="black" points="849.5,-46.084 846,-36.084 842.5,-46.084 849.5,-46.084"/>
<text text-anchor="middle" x="851.5" y="-58.3" font-family="Times,serif" font-size="14.00">ss</text>
</g>
<!-- 13_State Update&#45;&gt;17_Counter -->
<g id="edge12" class="edge"><title>13_State Update&#45;&gt;17_Counter</title>
<path fill="none" stroke="black" d="M810.014,-90.6055C772.245,-75.4979 712.921,-51.7685 673.028,-35.8111"/>
<polygon fill="black" stroke="black" points="674.164,-32.4959 663.579,-32.0316 671.564,-38.9953 674.164,-32.4959"/>
<text text-anchor="middle" x="762.5" y="-58.3" font-family="Times,serif" font-size="14.00">ss</text>
</g>
<!-- 15_State Update&#45;&gt;16_Data&#45;path -->
<g id="edge13" class="edge"><title>15_State Update&#45;&gt;16_Data&#45;path</title>
<path fill="none" stroke="black" d="M430.636,-100.765C374.639,-96.0787 299.754,-86.8525 275,-70 266.177,-63.9933 259.574,-54.4608 254.842,-45.2542"/>
<polygon fill="black" stroke="black" points="257.922,-43.5725 250.574,-35.9394 251.558,-46.4884 257.922,-43.5725"/>
<text text-anchor="middle" x="382.5" y="-58.3" font-family="Times,serif" font-size="14.00">t_pi_data t_pi_low t_pi_length t_pi_fill</text>
</g>
<!-- 15_State Update&#45;&gt;17_Counter -->
<g id="edge14" class="edge"><title>15_State Update&#45;&gt;17_Counter</title>
<path fill="none" stroke="black" d="M493.276,-87.5666C492.018,-76.7514 492.488,-63.2098 500,-54 509.701,-42.1074 543.503,-33.2497 574.34,-27.4205"/>
<polygon fill="black" stroke="black" points="574.996,-30.8587 584.213,-25.6343 573.75,-23.9705 574.996,-30.8587"/>
<text text-anchor="middle" x="558.5" y="-58.3" font-family="Times,serif" font-size="14.00">t_pi_msb t_pi_length</text>
</g>
</g>
</svg>
